<svg width="90" height="36" viewBox="0 0 90 36" fill="none" xmlns="http://www.w3.org/2000/svg">
<rect width="90" height="36" fill="#93C2ED"/>
<path d="M14.0078 18.3945C12.0781 17.8398 10.6719 17.1602 9.78906 16.3555C8.91406 15.543 8.47656 14.543 8.47656 13.3555C8.47656 12.0117 9.01172 10.9023 10.082 10.0273C11.1602 9.14453 12.5586 8.70312 14.2773 8.70312C15.4492 8.70312 16.4922 8.92969 17.4062 9.38281C18.3281 9.83594 19.0391 10.4609 19.5391 11.2578C20.0469 12.0547 20.3008 12.9258 20.3008 13.8711H18.0391C18.0391 12.8398 17.7109 12.0312 17.0547 11.4453C16.3984 10.8516 15.4727 10.5547 14.2773 10.5547C13.168 10.5547 12.3008 10.8008 11.6758 11.293C11.0586 11.7773 10.75 12.4531 10.75 13.3203C10.75 14.0156 11.043 14.6055 11.6289 15.0898C12.2227 15.5664 13.2266 16.0039 14.6406 16.4023C16.0625 16.8008 17.1719 17.2422 17.9688 17.7266C18.7734 18.2031 19.3672 18.7617 19.75 19.4023C20.1406 20.043 20.3359 20.7969 20.3359 21.6641C20.3359 23.0469 19.7969 24.1562 18.7188 24.9922C17.6406 25.8203 16.1992 26.2344 14.3945 26.2344C13.2227 26.2344 12.1289 26.0117 11.1133 25.5664C10.0977 25.1133 9.3125 24.4961 8.75781 23.7148C8.21094 22.9336 7.9375 22.0469 7.9375 21.0547H10.1992C10.1992 22.0859 10.5781 22.9023 11.3359 23.5039C12.1016 24.0977 13.1211 24.3945 14.3945 24.3945C15.582 24.3945 16.4922 24.1523 17.125 23.668C17.7578 23.1836 18.0742 22.5234 18.0742 21.6875C18.0742 20.8516 17.7812 20.207 17.1953 19.7539C16.6094 19.293 15.5469 18.8398 14.0078 18.3945ZM30.7188 26C30.5938 25.75 30.4922 25.3047 30.4141 24.6641C29.4062 25.7109 28.2031 26.2344 26.8047 26.2344C25.5547 26.2344 24.5273 25.8828 23.7227 25.1797C22.9258 24.4688 22.5273 23.5703 22.5273 22.4844C22.5273 21.1641 23.0273 20.1406 24.0273 19.4141C25.0352 18.6797 26.4492 18.3125 28.2695 18.3125H30.3789V17.3164C30.3789 16.5586 30.1523 15.957 29.6992 15.5117C29.2461 15.0586 28.5781 14.832 27.6953 14.832C26.9219 14.832 26.2734 15.0273 25.75 15.418C25.2266 15.8086 24.9648 16.2812 24.9648 16.8359H22.7852C22.7852 16.2031 23.0078 15.5938 23.4531 15.0078C23.9062 14.4141 24.5156 13.9453 25.2812 13.6016C26.0547 13.2578 26.9023 13.0859 27.8242 13.0859C29.2852 13.0859 30.4297 13.4531 31.2578 14.1875C32.0859 14.9141 32.5156 15.918 32.5469 17.1992V23.0352C32.5469 24.1992 32.6953 25.125 32.9922 25.8125V26H30.7188ZM27.1211 24.3477C27.8008 24.3477 28.4453 24.1719 29.0547 23.8203C29.6641 23.4688 30.1055 23.0117 30.3789 22.4492V19.8477H28.6797C26.0234 19.8477 24.6953 20.625 24.6953 22.1797C24.6953 22.8594 24.9219 23.3906 25.375 23.7734C25.8281 24.1562 26.4102 24.3477 27.1211 24.3477ZM39.9414 23.0586L43.082 13.3203H45.2969L40.75 26H39.0977L34.5039 13.3203H36.7188L39.9414 23.0586ZM52.4805 26.2344C50.7617 26.2344 49.3633 25.6719 48.2852 24.5469C47.207 23.4141 46.668 21.9023 46.668 20.0117V19.6133C46.668 18.3555 46.9062 17.2344 47.3828 16.25C47.8672 15.2578 48.5391 14.4844 49.3984 13.9297C50.2656 13.3672 51.2031 13.0859 52.2109 13.0859C53.8594 13.0859 55.1406 13.6289 56.0547 14.7148C56.9688 15.8008 57.4258 17.3555 57.4258 19.3789V20.2812H48.8359C48.8672 21.5312 49.2305 22.543 49.9258 23.3164C50.6289 24.082 51.5195 24.4648 52.5977 24.4648C53.3633 24.4648 54.0117 24.3086 54.543 23.9961C55.0742 23.6836 55.5391 23.2695 55.9375 22.7539L57.2617 23.7852C56.1992 25.418 54.6055 26.2344 52.4805 26.2344ZM52.2109 14.8672C51.3359 14.8672 50.6016 15.1875 50.0078 15.8281C49.4141 16.4609 49.0469 17.3516 48.9062 18.5H55.2578V18.3359C55.1953 17.2344 54.8984 16.3828 54.3672 15.7812C53.8359 15.1719 53.1172 14.8672 52.2109 14.8672Z" fill="white"/>
<path fill-rule="evenodd" clip-rule="evenodd" d="M81.0004 10V14.69L84.3104 18L81.0004 21.31V26H76.3104L73.0004 29.31L69.6904 26H65.0004V21.31L61.6904 18L65.0004 14.69V10H69.6904L73.0004 6.69L76.3104 10H81.0004ZM79.0004 24V20.48L81.4804 18L79.0004 15.52V12H75.4804L73.0004 9.52L70.5204 12H67.0004V15.52L64.5204 18L67.0004 20.48V24H70.5204L73.0004 26.48L75.4804 24H79.0004ZM73.0004 12.5C69.9704 12.5 67.5004 14.97 67.5004 18C67.5004 21.03 69.9704 23.5 73.0004 23.5C76.0304 23.5 78.5004 21.03 78.5004 18C78.5004 14.97 76.0304 12.5 73.0004 12.5ZM69.5004 18C69.5004 19.93 71.0704 21.5 73.0004 21.5C74.9304 21.5 76.5004 19.93 76.5004 18C76.5004 16.07 74.9304 14.5 73.0004 14.5C71.0704 14.5 69.5004 16.07 69.5004 18Z" fill="white"/>
</svg>
